<svg xmlns="http://www.w3.org/2000/svg" xmlns:xlink="http://www.w3.org/1999/xlink"  width="196" height="115" viewBox="0 0 196 115"><defs><path id="scroll-more_svg__a" d="M1.082.766h3.442v18.87H1.082z"></path><path id="scroll-more_svg__c" d="M1.43.39h1.53V13.78H1.43z"></path><path id="scroll-more_svg__e" d="M0 .161h13.076v12.752H0z"></path></defs><g fill="none" fill-rule="evenodd"><path d="M109.017 19.111c2.708-.015 4.432-.606 5.455-1.727 1.618-1.775 2.346-3.903 2.287-6.286-.048-2.03-.765-3.813-2.183-5.283-.485-.5-.933-1.116-1.528-1.409a7.446 7.446 0 00-4.837-.61c-5.552 1.163-8.005 7.5-4.738 12.122 1.518 2.149 3.67 3.061 5.544 3.193m.208-16.257c.673.105 1.442.19 2.193.355 1.275.279 2.297 1.023 3.236 1.896 1.975 1.834 3.005 4.103 2.93 6.8-.06 2.14-.694 4.128-2.049 5.828-1.41 1.765-3.339 2.473-5.523 2.514-3.133.063-5.5-1.29-7.514-3.73-3.213-3.898-1.298-12.22 5.474-13.54.376-.073.768-.077 1.253-.123M116.402 44.365c0 .992.016 1.71-.013 2.427-.007.154-.143.387-.27.429-.134.044-.393-.046-.484-.166-.117-.151-.152-.389-.164-.592-.14-2.034-.254-4.069-.41-6.1-.064-.82-.214-1.635-.33-2.45-.03-.21-.121-.414-.11-.618.012-.207.113-.407.174-.611.156.142.396.257.453.433.241.75.514 1.503.619 2.277.237 1.74.38 3.49.535 4.97" fill="#DBC0BD"></path><g transform="translate(119.412 26.69)"><mask id="scroll-more_svg__b" fill="#fff"><use xlink:href="#scroll-more_svg__a"></use></mask><path d="M3.913 12.14C3.591 8.49 3.25 4.845 1.812 1.416a.69.69 0 01-.061-.372 1.537 1.537 0 01-.208-.278c-.172.038-.33.095-.46.191.051.175.08.357.08.539.066-.041.133-.077.198-.116.296 1.294.705 2.512.833 3.76.262 2.536.372 5.087.542 7.63.11 1.618.17 3.238.348 4.847.066.582.383 1.15.655 1.689.084.168.4.222.61.33.061-.238.193-.482.173-.711-.19-2.263-.408-4.524-.609-6.785" fill="#DBC0BD" mask="url(#scroll-more_svg__b)"></path></g><path d="M120.782 28.12a1.35 1.35 0 01.278-.238c.035-.045.073-.083.115-.121a.732.732 0 01.174-.39c.77-.949 1.025-2.057.728-3.229-.428-1.68-1.773-2.456-3.69-2.34-2.226.132-4.457.247-6.686.263-3.251.023-6.507.052-9.751-.112-3.506-.18-7.003-.564-10.501-.88-2.92-.264-5.835-.32-8.718.278-4.057.84-7.08 3.001-8.546 7.02-.245.673-.358 1.393-.546 2.088-.853 3.157-1.222 6.391-1.523 9.631-.129 1.382-.084 2.78-.11 4.168-.008.546-.01 1.09.018 1.631.008.137.144.267.22.398.145-.159.165-.258.17-.358.086-1.721.075-3.454.27-5.163.381-3.319.796-6.632 1.625-9.883.427-1.668.835-3.33 1.896-4.71 1.649-2.148 3.836-3.464 6.494-4.02 3.53-.74 7.077-.565 10.602-.108 3.966.513 7.94.814 11.933.879 2.954.049 5.908.009 8.864.001.349-.001.7-.043 1.05-.067 1.246-.081 2.49-.228 3.736-.233 2.324-.01 2.959 2.109 2.096 3.718a3.496 3.496 0 01-1.864 1.643c-.835.32-1.682.623-2.548.845-4.249 1.087-8.61 1.288-12.959 1.594-1.358.095-2.702.409-4.05.651-.475.083-.812.343-.922.879-.226 1.1-.505 2.19-.752 3.284-.748 3.311-.826 6.666-.6 10.032.048.707.292 1.408.503 2.094.114.368.413.58.832.435.335-.12.44-.542.277-.954-.115-.29-.258-.585-.297-.89-.131-1.027-.226-2.059-.33-3.091-.353-3.578.04-7.096.907-10.567.047-.193.272-.45.45-.482 1.176-.209 2.355-.417 3.543-.524 3.17-.282 6.354-.406 9.507-.795 2.784-.343 5.575-.814 8.095-2.41l.01.032M88.854 16.258c2.705-.015 4.429-.608 5.453-1.726 1.586-1.726 2.311-3.807 2.298-6.126-.013-2.084-.725-3.928-2.189-5.442-.485-.5-.931-1.118-1.526-1.41A7.453 7.453 0 0088.054.94c-5.552 1.159-8.011 7.5-4.746 12.12 1.519 2.15 3.669 3.06 5.546 3.197M89.063 0c.671.105 1.44.19 2.193.353 1.276.28 2.297 1.025 3.236 1.898 1.975 1.834 3.006 4.102 2.93 6.8-.062 2.139-.694 4.127-2.049 5.826-1.411 1.766-3.338 2.473-5.522 2.516-3.136.061-5.5-1.29-7.514-3.73-3.215-3.899-1.3-12.22 5.473-13.54.377-.074.768-.079 1.253-.123" fill="#A4C1CF"></path><g transform="translate(78.118 34.345)"><mask id="scroll-more_svg__d" fill="#fff"><use xlink:href="#scroll-more_svg__c"></use></mask><path d="M2.503.39c.063.897.162 1.763.178 2.633.047 3.041.07 6.082.096 9.125.003.263-.037.525-.053.787-.04.57-.34.853-.995.847-.04-.226-.12-.458-.116-.688.084-3.444.18-6.888.272-10.331.014-.562.008-1.127.054-1.686.023-.291.046-.646.564-.688" fill="#A4C1CF" mask="url(#scroll-more_svg__d)"></path></g><g><path fill="#A5C2D0" d="M88 97l10 18 10-18z"></path><g transform="translate(0 47.667)"><mask id="scroll-more_svg__f" fill="#fff"><use xlink:href="#scroll-more_svg__e"></use></mask><path d="M.238 9.077c.457-1.02 1.107-1.915 1.758-2.811.817-1.109 3.62-4.417 4.238-5C7.398.099 8.205-.11 9.335.48c1.987.91 4.14 1.931 3.678 3.203-.41 1.473-2.462.39-3.971-.627-.537-.318-.904-.378-1.32.154-.347.456-.698.838-1.03 1.265-.28.306-.238.686.153.938 1.22.703 2.134.978 1.784 2.082-.572 1.436-1.904.503-3.454-.027-.608-.242-.881-.187-1.27.285-.252.318-.5.713-.733 1.077-.244.466-.127.843.405 1.088 1.868.857 3.319.652 2.968 2.155-.099.46-.537.802-1.09.838-.583.022-3.993-1.141-4.377-1.316-1.057-.594-1.337-1.409-.84-2.519" fill="#F3EEE7" mask="url(#scroll-more_svg__f)"></path></g><path d="M17.95 65.694c.735-1.135 1.491-2.228 3.33-4.855.505-.763.851-1.268.619-1.595-.23-.325-.75-.022-1.239.295l-1.902 1.418c-1.05.745-1.618.894-2.22.645-.994-.42-.82-1.615-.618-2.903.079-.53.186-.84-.181-.97-.308-.11-.578.178-.885.56a70.154 70.154 0 00-2.935 3.912c-.632 1.031-1.327 1.345-1.948.951a1.298 1.298 0 01-.419-1.683c.679-1.468 4.742-6.448 6.5-8.338.69-.804 1.454-1.124 2.068-.907 1.321.467 1.033 2.598.784 4.217-.067.396-.037.613.246.785.298.14.504.038 1.087-.349 1.443-.883 3.95-2.16 4.994-1.79.644.227.995.91.9 1.782-.13 1.175-1.169 2.69-1.905 3.825-1.663 2.62-3.986 6.053-4.54 6.557-.488.42-1.116.44-1.594.026-.5-.35-.551-.994-.143-1.583M32.877 60.42c-.059-.664-.565-.666-1.2-.296-1.626 1.162-3.003 2.66-3.561 4.758-.236.89-.201 1.514.285 1.715 1.197.566 4.524-4.461 4.476-6.178m-7.133 6.918c-1.008-3.173 1.823-7.481 4.954-9.491a5.371 5.371 0 011.741-.719c.903-.095 1.37.17 1.736.952.168.385.344.605.591.809.83.806.641 2.665.017 3.995-1.216 2.531-2.966 5.056-5.201 6.115-1.705.831-3.24.14-3.838-1.66M38.118 69.944c1.238-1.957 4.028-7.217 4.25-8.28.062-.292-.013-.575-.363-.65-1.718-.367-3.6-.432-4.365-.595-.382-.082-.647-.407-.692-.989-.09-.693.64-1.311 1.492-1.261 2.323.021 3.993.311 10.196 1.668 1.242.265 1.765.78 1.604 1.553a1.155 1.155 0 01-1.252.91 33.87 33.87 0 01-2.472-.426c-1.242-.264-1.359-.189-1.924.937-1.423 2.995-3.077 6.31-4.465 8.503-.577.853-1.397 1.117-1.991.618-.597-.495-.602-1.103-.018-1.988M52.804 62.234c.392-.567.992-.799 1.483-.58.744.293.848 1.046.34 2.295-.853 2.157-2.029 4.058-3.13 6.105-1.288 2.383-1.913 3.947-3.06 3.317-1.32-.595-.279-2.285.485-3.69 1.604-2.695 3.512-6.809 3.882-7.447M61.821 66.007c-.143-.65-.644-.587-1.228-.134-1.463 1.362-2.637 3.029-2.924 5.182-.123.913-.006 1.527.5 1.663 1.26.405 3.92-5.013 3.652-6.711M55.628 73.8c-1.403-3.015.857-7.657 3.705-10.058a5.353 5.353 0 011.635-.94c.883-.214 1.38-.012 1.842.716.214.362.418.555.691.725.926.69.972 2.559.524 3.959-.881 2.67-2.298 5.401-4.378 6.743-1.586 1.047-3.195.562-4.019-1.145M65 74.73c.04-.458 1.011-2.95 1.848-4.658 1.499-3.3 2.782-6.72 4.107-6.6.425.005.798.237 1.058.624.402.6.82 2.915.982 4.418l.182 1.238c.119.505.196.745.554.777.421.038.639-.603 1.242-1.872.807-1.741 1.678-3.481 2.34-3.951.24-.144.478-.22.8-.192.486.043 1.093.562.994 1.313-.02.23-.14.482-.295.765-1.445 2.317-1.9 3.399-3.484 6.924-.326.73-.695 1.59-1.172 2.568-.24.477-.654.735-1.107.695-.455-.042-.888-.312-1.2-.835-.511-.873-.483-1.928-1.146-6.283-.121-.44-.639-.52-.868-.144-.919 1.535-1.877 3.894-2.472 5.459-.34.896-.9 1.308-1.566 1.081-.506-.178-.852-.705-.797-1.326M85.1 71.942c.309-1.631.32-1.894.035-2.008-.637-.328-2.169 1.703-1.873 2.313.116.302.373.349.926.375.455.024.824-.19.913-.68m-.717 3.987c.054-.427-.19-.802-.61-.855l-2.073-.203c-.359-.019-.595.135-.875.516-.665.957-1.503 2.135-1.775 2.352a1.212 1.212 0 01-1.397-.07c-.598-.425-.594-1.152.104-2.138l2.956-4.467c1.232-1.883 4.21-5.492 5.414-6.157 1.07-.571 2.089-.026 2.194 1.132.097 1.355-1.357 10.415-1.779 11.712-.19.583-.726.886-1.307.758-1.097-.218-.921-1.167-.852-2.58M89.88 76.514c-.088-.726 1.025-3.671 2.21-6.913.504-1.377 1.013-2.752 1.487-4.16.376-1.18.866-1.567 1.645-1.358.81.208 1.027.937.588 2.18a589.215 589.215 0 01-2.133 6.092c-.574 1.605-.877 2.291-.424 2.528.225.137.747.077 1.887-.138 1.013-.184 1.856-.139 1.975.82.087.591-.246 1.146-.8 1.305-1.504.471-4.504 1.055-5.088 1.013-.781-.043-1.23-.51-1.348-1.368M107.99 75.284c.467-2.105 1.168-8.047 1.374-9.575.139-.997.565-1.517 1.181-1.553.845-.017 1.38.776 1.21 1.776-.13 1.16-.525 3.889-.487 4.579.02.326.422.535.702.288.37-.352 1.098-1.285 1.57-1.577.785-.541 1.64-.361 2.147.5.465.732.471 2.544 1.094 2.607.558.067 1.21-1.622 2.233-4.22 1.2-2.972 1.707-4.913 3.105-4.402.502.234.83.842.665 1.41-.232 1.037-4.534 11.245-4.982 11.932-.718 1.13-2.059 1.045-2.615-.143-.41-.899-.63-1.875-.849-2.885-.262-1.137-.688-1.21-1.45-.309-2.336 3.037-2.547 3.345-2.732 3.554-.46.456-.975.586-1.508.386-.7-.288-.942-1.098-.657-2.368M124.57 74.928c-.113-1.114 0-2.219.116-3.324.151-1.373.919-5.661 1.161-6.481.422-1.602 1.018-2.194 2.284-2.262 2.17-.232 4.536-.448 4.774.883.382 1.484-1.93 1.597-3.74 1.49-.623 0-.97.137-1.062.809-.072.57-.184 1.078-.26 1.616-.087.407.14.714.601.732 1.405-.018 2.331-.247 2.578.885.224 1.532-1.392 1.407-2.993 1.742-.644.101-.854.288-.955.895-.058.405-.074.87-.094 1.303.023.527.311.793.895.732 2.039-.217 3.187-1.134 3.635.343.145.448-.065.967-.523 1.282-.49.315-4.013 1.055-4.435 1.098-1.207.028-1.856-.53-1.981-1.743M134.434 74.384c-.195-.705.462-3.788 1.144-7.177.297-1.436.59-2.873.847-4.34.193-1.225.622-1.683 1.421-1.596.834.081 1.158.768.911 2.065-.45 2.456-.904 4.881-1.194 6.351-.328 1.675-.522 2.4-.04 2.565.243.099.752-.04 1.847-.426.972-.337 1.813-.424 2.073.505.177.571-.067 1.173-.592 1.411-1.415.699-4.294 1.737-4.879 1.787-.777.077-1.291-.317-1.538-1.145M143.319 73.111c-.22-.697.33-3.803.894-7.212.244-1.448.49-2.894.695-4.368.152-1.231.563-1.706 1.367-1.648.835.053 1.184.726.982 2.031a561.529 561.529 0 01-.974 6.39c-.268 1.687-.44 2.419.05 2.566.245.09.748-.067 1.83-.492.958-.372 1.798-.488 2.09.43.197.566-.028 1.175-.544 1.435-1.39.748-4.231 1.887-4.814 1.957-.774.104-1.301-.269-1.576-1.089M152.24 71.466c-.103-.45.063-3.12.34-5.007.425-3.608.605-7.26 1.904-7.56.405-.127.829-.023 1.194.265.567.443 1.667 2.52 2.278 3.898l.552 1.122c.267.443.413.648.76.568.413-.096.427-.773.615-2.166.237-1.914.539-3.839 1.026-4.49a1.25 1.25 0 01.702-.432c.476-.11 1.212.193 1.347.938.05.225.013.504-.05.822-.671 2.652-.775 3.823-1.211 7.672-.088.795-.178 1.728-.335 2.81-.084.526-.398.901-.843 1.005-.443.103-.939-.022-1.395-.422-.751-.67-1.046-1.683-3-5.622-.25-.38-.764-.296-.87.132-.406 1.748-.602 4.292-.693 5.967-.052.956-.459 1.521-1.16 1.515-.538-.01-1.027-.405-1.162-1.015M166.284 67.698c-.308-1.075-.388-2.182-.47-3.29-.091-1.379-.086-5.732.007-6.584.137-1.65.616-2.338 1.853-2.635 2.092-.615 4.382-1.253 4.848.015.637 1.39-1.618 1.915-3.418 2.137-.613.112-.929.307-.903.985.03.575.01 1.093.03 1.635-.016.417.262.678.717.613 1.38-.268 2.248-.661 2.692.409.49 1.468-1.124 1.633-2.641 2.25-.615.215-.788.438-.781 1.052.016.406.08.87.135 1.296.114.517.445.727 1.006.562 1.97-.579 2.939-1.685 3.637-.314.22.416.109.962-.288 1.352-.427.402-3.764 1.758-4.17 1.877-1.183.246-1.92-.19-2.254-1.36M176.861 64.991c-.403-.553-.388-1.292.061-1.772.422-.468.928-.511 1.51-.13.69.484 1.443.559 2.247.197 1.63-.767 1.158-2.87-.756-3.783-.894-.375-2.913-1.004-3.48-1.425-.942-.707-1.207-1.555-.904-2.645.606-1.795 2.652-3.729 4.812-4.55.827-.302 1.397-.16 1.708.428.364.637.11 1.183-.872 1.822-.812.435-1.626.871-2.31 1.575-1.087 1.13-.975 1.438.404 1.915 2.332.726 3.655 1.82 4.54 3.631.823 1.729.062 3.965-1.674 5.017-1.735 1.052-4.444.918-5.286-.28M188.61 60.593c-.45-.515-.5-1.253-.09-1.77.38-.503.879-.59 1.493-.26.73.422 1.486.432 2.258 0 1.557-.906.91-2.96-1.077-3.701-.92-.297-2.988-.749-3.587-1.12-1-.622-1.338-1.445-1.127-2.557.451-1.842 2.326-3.945 4.41-4.952.798-.371 1.378-.278 1.737.279.418.603.209 1.17-.715 1.891-.774.504-1.547 1.01-2.168 1.77-.986 1.219-.85 1.519.565 1.874 2.385.521 3.795 1.496 4.831 3.223.967 1.652.399 3.947-1.242 5.145-1.638 1.197-4.35 1.3-5.288.178" fill="#F3EEE7"></path></g></g></svg>